<svg xmlns="http://www.w3.org/2000/svg" xmlns:xlink="http://www.w3.org/1999/xlink" version="1.1" x="0px" y="0px" viewBox="0 0 100 100" style="enable-background:new 0 0 100 100;" xml:space="preserve">
  <g>
    <path d="M37.4,11H21.6C15.7,11,11,15.7,11,21.6v15.9C11,43.3,15.7,48,21.6,48h15.9C43.3,48,48,43.3,48,37.4V21.6   C48,15.7,43.3,11,37.4,11z M40,37.4c0,1.4-1.1,2.6-2.6,2.6H21.6c-1.4,0-2.6-1.1-2.6-2.6V21.6c0-1.4,1.1-2.6,2.6-2.6h15.9   c1.4,0,2.6,1.1,2.6,2.6V37.4z"/>
    <path d="M62.6,48h15.9C84.3,48,89,43.3,89,37.4V21.6C89,15.7,84.3,11,78.4,11H62.6C56.7,11,52,15.7,52,21.6v15.9   C52,43.3,56.7,48,62.6,48z M60,21.6c0-1.4,1.1-2.6,2.6-2.6h15.9c1.4,0,2.6,1.1,2.6,2.6v15.9c0,1.4-1.1,2.6-2.6,2.6H62.6   c-1.4,0-2.6-1.1-2.6-2.6V21.6z"/>
    <path d="M37.4,52H21.6C15.7,52,11,56.7,11,62.6v15.9C11,84.3,15.7,89,21.6,89h15.9C43.3,89,48,84.3,48,78.4V62.6   C48,56.7,43.3,52,37.4,52z M40,78.4c0,1.4-1.1,2.6-2.6,2.6H21.6c-1.4,0-2.6-1.1-2.6-2.6V62.6c0-1.4,1.1-2.6,2.6-2.6h15.9   c1.4,0,2.6,1.1,2.6,2.6V78.4z"/>
    <path d="M70.5,89C80.7,89,89,80.7,89,70.5S80.7,52,70.5,52S52,60.3,52,70.5S60.3,89,70.5,89z M70.5,60C76.3,60,81,64.7,81,70.5   S76.3,81,70.5,81S60,76.3,60,70.5S64.7,60,70.5,60z"/>
  </g>
</svg>