<svg xmlns="http://www.w3.org/2000/svg" xmlns:xlink="http://www.w3.org/1999/xlink" version="1.1" x="0px" y="0px" viewBox="0 0 100 125" style="enable-background:new 0 0 100 100;" xml:space="preserve"><g><path d="M37.4,11H21.6C15.7,11,11,15.7,11,21.6v15.9C11,43.3,15.7,48,21.6,48h15.9C43.3,48,48,43.3,48,37.4V21.6   C48,15.7,43.3,11,37.4,11z"/><path d="M62.6,48h15.9C84.3,48,89,43.3,89,37.4V21.6C89,15.7,84.3,11,78.4,11H62.6C56.7,11,52,15.7,52,21.6v15.9   C52,43.3,56.7,48,62.6,48z"/><path d="M37.4,52H21.6C15.7,52,11,56.7,11,62.6v15.9C11,84.3,15.7,89,21.6,89h15.9C43.3,89,48,84.3,48,78.4V62.6   C48,56.7,43.3,52,37.4,52z"/><circle cx="70.5" cy="70.5" r="18.5"/></g><text x="0" y="115" fill="#000000" font-size="5px" font-weight="bold" font-family="'Helvetica Neue', Helvetica, Arial-Unicode, Arial, Sans-serif">Created by Besticons</text><text x="0" y="120" fill="#000000" font-size="5px" font-weight="bold" font-family="'Helvetica Neue', Helvetica, Arial-Unicode, Arial, Sans-serif">from the Noun Project</text></svg>