<svg xmlnsDc="http://purl.org/dc/elements/1.1/" xmlnsCc="http://creativecommons.org/ns#" xmlnsRdf="http://www.w3.org/1999/02/22-rdf-syntax-ns#" xmlnsSvg="http://www.w3.org/2000/svg" xmlns="http://www.w3.org/2000/svg" xmlnsSodipodi="http://sodipodi.sourceforge.net/DTD/sodipodi-0.dtd" xmlnsInkscape="http://www.inkscape.org/namespaces/inkscape" viewBox="0 0 512 512" version="1.1" x="0px" y="0px"><g transform="translate(-88.749289,-131.31133)"><path style="opacity:1;fill:#000000;fill-opacity:1;fill-rule:nonzero;stroke:none;stroke-width:14;stroke-linecap:round;stroke-linejoin:round;stroke-miterlimit:4;stroke-dasharray:none;stroke-dashoffset:0;stroke-opacity:1" d="m 344.74928,131.31132 a 256,256 0 0 0 -256.000001,256 256,256 0 0 0 256.000001,256 256,256 0 0 0 256,-256 256,256 0 0 0 -256,-256 z m 0,51.51758 A 204.48222,204.48222 0 0 1 549.2317,387.31132 204.48222,204.48222 0 0 1 344.74928,591.79374 204.48222,204.48222 0 0 1 140.26686,387.31132 204.48222,204.48222 0 0 1 344.74928,182.8289 Z m -70.14648,93.94531 c -3.0449,0 -6.09079,1.16501 -8.42383,3.49805 l -28.46875,28.46875 c -4.66607,4.66608 -4.66607,12.17963 0,16.8457 l 61.72461,61.72461 -61.72461,61.72461 c -4.66607,4.66607 -4.66607,12.17963 0,16.8457 l 28.46875,28.46875 c 4.66608,4.66608 12.17963,4.66608 16.8457,0 l 61.72461,-61.72461 61.72461,61.72461 c 4.66608,4.66608 12.17963,4.66608 16.8457,0 l 28.46875,-28.46875 c 4.66606,-4.66607 4.66606,-12.17963 0,-16.8457 l -61.72461,-61.72461 61.72461,-61.72461 c 4.66606,-4.66607 4.66606,-12.17962 0,-16.8457 l -28.46875,-28.46875 c -4.66607,-4.66608 -12.17962,-4.66606 -16.8457,0 l -61.72461,61.72461 -61.72461,-61.72461 c -2.33303,-2.33303 -5.37698,-3.49805 -8.42187,-3.49805 z"/></g></svg>