<svg xmlns="http://www.w3.org/2000/svg" xmlns:xlink="http://www.w3.org/1999/xlink" version="1.1" x="0px" y="0px" viewBox="0 0 100 100" style="enable-background:new 0 0 100 100;" xml:space="preserve">
  <path d="M47.12,81.32c0.59,0.31,1.24,0.47,1.88,0.47c0.64,0,1.27-0.15,1.85-0.46c1.34-0.7,32.75-17.4,32.75-42.02   c0-11.64-9.47-21.1-21.1-21.1c-5.01,0-9.75,1.74-13.5,4.89c-3.75-3.15-8.49-4.89-13.5-4.89c-11.64,0-21.1,9.47-21.1,21.1   C14.4,63.59,45.78,80.61,47.12,81.32z M35.5,26.21c4.06,0,7.83,1.85,10.34,5.08c0.76,0.98,1.92,1.55,3.16,1.55s2.4-0.57,3.16-1.55   c2.51-3.23,6.28-5.08,10.34-5.08c7.23,0,13.1,5.88,13.1,13.1c0,16.76-20.25,30.1-26.59,33.87C42.68,69.36,22.4,55.83,22.4,39.31   C22.4,32.09,28.27,26.21,35.5,26.21z"/>
</svg>