<svg xmlns="http://www.w3.org/2000/svg" xmlns:xlink="http://www.w3.org/1999/xlink" version="1.1" x="0px" y="0px" viewBox="0 0 100 100" style="enable-background:new 0 0 100 100;" xml:space="preserve">
  <path d="M86.87,44.96L54.93,19.44c-2.86-2.32-7-2.32-9.84-0.01L13.13,44.96c-1.29,1.03-1.51,2.92-0.47,4.22   c1.03,1.29,2.92,1.51,4.22,0.47l3.13-2.5v27.33c0,4.32,3.51,7.83,7.83,7.83h8.34c4.32,0,7.83-3.51,7.83-7.83V60.13   c0-1.01,0.82-1.83,1.83-1.83h8.34c1.01,0,1.83,0.82,1.83,1.83v14.34c0,4.32,3.51,7.83,7.83,7.83h8.34c4.32,0,7.83-3.51,7.83-7.83   V47.15l3.13,2.5c0.55,0.44,1.21,0.66,1.87,0.66c0.88,0,1.75-0.39,2.35-1.13C88.38,47.88,88.17,46,86.87,44.96z M74,74.48   c0,1.01-0.82,1.83-1.83,1.83h-8.34c-1.01,0-1.83-0.82-1.83-1.83V60.13c0-4.32-3.51-7.83-7.83-7.83h-8.34   c-4.32,0-7.83,3.51-7.83,7.83v14.34c0,1.01-0.82,1.83-1.83,1.83h-8.34c-1.01,0-1.83-0.82-1.83-1.83V42.36L48.85,24.1   c0.67-0.54,1.64-0.54,2.32,0.01L74,42.36V74.48z"/>
</svg>