<svg xmlns="http://www.w3.org/2000/svg" xmlns:xlink="http://www.w3.org/1999/xlink" version="1.1" x="0px" y="0px" viewBox="0 0 100 125" style="enable-background:new 0 0 100 100;" xml:space="preserve"><g><path d="M18.85,48.67L23,45.41v28.07c0,2.67,2.16,4.83,4.83,4.83h8.34c2.67,0,4.83-2.16,4.83-4.83V59.13   c0-2.67,2.16-4.83,4.83-4.83h8.34c2.67,0,4.83,2.16,4.83,4.83v14.34c0,2.67,2.16,4.83,4.83,4.83h8.34c2.67,0,4.83-2.16,4.83-4.83   V45.41l4.15,3.26c0.55,0.43,1.2,0.64,1.85,0.64c0.89,0,1.77-0.39,2.36-1.15c1.02-1.3,0.8-3.19-0.51-4.21L54.93,20.44   c-2.86-2.32-7-2.32-9.83-0.03L15.15,43.95c-1.3,1.02-1.53,2.91-0.51,4.21S17.55,49.69,18.85,48.67z"/></g><text x="0" y="115" fill="#000000" font-size="5px" font-weight="bold" font-family="'Helvetica Neue', Helvetica, Arial-Unicode, Arial, Sans-serif">Created by Besticons</text><text x="0" y="120" fill="#000000" font-size="5px" font-weight="bold" font-family="'Helvetica Neue', Helvetica, Arial-Unicode, Arial, Sans-serif">from the Noun Project</text></svg>