<svg xmlns="http://www.w3.org/2000/svg" xmlns:xlink="http://www.w3.org/1999/xlink" version="1.1" x="0px" y="0px" viewBox="0 0 100 100" style="enable-background:new 0 0 100 100;" xml:space="preserve">
  <path d="M75.3,68.2C80.1,61.9,83,54,83,45.5C83,24.8,66.2,8,45.5,8C24.8,8,8,24.8,8,45.5C8,66.2,24.8,83,45.5,83   c8.5,0,16.4-2.9,22.7-7.7l17.3,17.3c1,1,2.3,1.5,3.5,1.5s2.6-0.5,3.5-1.5c2-2,2-5.1,0-7.1L75.3,68.2z M18,45.5   C18,30.3,30.3,18,45.5,18S73,30.3,73,45.5S60.6,73,45.5,73S18,60.6,18,45.5z"/>
</svg>