<svg xmlns="http://www.w3.org/2000/svg" xmlns:xlink="http://www.w3.org/1999/xlink" version="1.1" x="0px" y="0px" viewBox="0 0 100 125" style="enable-background:new 0 0 100 100;" xml:space="preserve"><g><path d="M18.62,41.54C18.23,42.99,16.95,44,15.45,44h-3.18C10.47,44,9,45.47,9,47.28v5.44C9,54.53,10.47,56,12.28,56h3.18   c1.49,0,2.78,1.01,3.17,2.46c0.74,2.74,1.82,5.35,3.21,7.75c0.75,1.29,0.56,2.92-0.5,3.98l-2.24,2.24c-1.28,1.28-1.28,3.36,0,4.64   l3.85,3.85c1.28,1.28,3.36,1.28,4.64,0l2.24-2.24c1.06-1.06,2.68-1.25,3.98-0.5c2.41,1.39,5.01,2.47,7.75,3.21   c1.44,0.39,2.46,1.67,2.46,3.17v3.18c0,1.81,1.47,3.28,3.28,3.28h5.44c1.81,0,3.28-1.47,3.28-3.28v-3.18   c0-1.49,1.01-2.78,2.46-3.17c2.74-0.74,5.35-1.82,7.75-3.21c1.29-0.75,2.92-0.56,3.98,0.5l2.24,2.24c1.28,1.28,3.36,1.28,4.64,0   l3.85-3.85c1.28-1.28,1.28-3.36,0-4.64l-2.24-2.24c-1.06-1.06-1.25-2.68-0.5-3.98c1.39-2.41,2.47-5.01,3.21-7.75   c0.39-1.44,1.67-2.46,3.17-2.46h3.18c1.81,0,3.28-1.47,3.28-3.28v-5.44c0-1.81-1.47-3.28-3.28-3.28h-3.18   c-1.49,0-2.78-1.01-3.17-2.46c-0.74-2.74-1.82-5.35-3.21-7.75c-0.75-1.29-0.56-2.92,0.5-3.98l2.24-2.24c1.28-1.28,1.28-3.36,0-4.64   l-3.85-3.85c-1.28-1.28-3.36-1.28-4.64,0l-2.24,2.24c-1.06,1.06-2.68,1.25-3.98,0.5c-2.41-1.39-5.01-2.47-7.75-3.21   C57.01,18.23,56,16.95,56,15.45v-3.18C56,10.47,54.53,9,52.72,9h-5.44C45.47,9,44,10.47,44,12.28v3.18c0,1.49-1.01,2.78-2.46,3.17   c-2.74,0.74-5.35,1.82-7.75,3.21c-1.29,0.75-2.92,0.56-3.98-0.5l-2.24-2.24c-1.28-1.28-3.36-1.28-4.64,0l-3.85,3.85   c-1.28,1.28-1.28,3.36,0,4.64l2.24,2.24c1.06,1.06,1.25,2.68,0.5,3.98C20.44,36.2,19.36,38.8,18.62,41.54z M50,27   c12.68,0,23,10.32,23,23S62.68,73,50,73S27,62.68,27,50S37.32,27,50,27z"/></g><text x="0" y="115" fill="#000000" font-size="5px" font-weight="bold" font-family="'Helvetica Neue', Helvetica, Arial-Unicode, Arial, Sans-serif">Created by Besticons</text><text x="0" y="120" fill="#000000" font-size="5px" font-weight="bold" font-family="'Helvetica Neue', Helvetica, Arial-Unicode, Arial, Sans-serif">from the Noun Project</text></svg>