<svg xmlns="http://www.w3.org/2000/svg" xmlns:xlink="http://www.w3.org/1999/xlink" version="1.1" x="0px" y="0px" viewBox="0 0 100 125" style="enable-background:new 0 0 100 100;" xml:space="preserve"><g><path d="M87.72,43h-3.18c-1.02,0-1.93-0.71-2.2-1.71c-0.75-2.8-1.86-5.48-3.31-7.99c-0.52-0.91-0.38-2.05,0.34-2.77l2.24-2.24   c1.67-1.67,1.67-4.38,0-6.05l-3.85-3.85c-1.67-1.67-4.38-1.67-6.05,0l-2.24,2.24c-0.72,0.72-1.86,0.86-2.77,0.34   c-2.51-1.44-5.2-2.56-7.99-3.31c-1.01-0.27-1.71-1.18-1.71-2.2v-3.18C57,9.92,55.08,8,52.72,8h-5.44C44.92,8,43,9.92,43,12.28v3.18   c0,1.02-0.71,1.93-1.71,2.2c-2.8,0.75-5.48,1.86-7.99,3.31c-0.91,0.52-2.05,0.38-2.77-0.34l-2.24-2.24c-1.67-1.67-4.38-1.67-6.05,0   l-3.85,3.85c-1.67,1.67-1.67,4.38,0,6.05l2.24,2.24c0.72,0.72,0.86,1.86,0.34,2.77c-1.44,2.51-2.56,5.2-3.31,7.99   c-0.27,1.01-1.18,1.71-2.2,1.71h-3.18C9.92,43,8,44.92,8,47.28v5.44C8,55.08,9.92,57,12.28,57h3.18c1.02,0,1.93,0.71,2.2,1.71   c0.75,2.8,1.86,5.48,3.31,7.99c0.52,0.91,0.38,2.05-0.34,2.77l-2.24,2.24c-1.67,1.67-1.67,4.38,0,6.05l3.85,3.85   c1.67,1.67,4.38,1.67,6.05,0l2.24-2.24c0.72-0.72,1.86-0.87,2.77-0.34c2.51,1.44,5.2,2.56,7.99,3.31c1.01,0.27,1.71,1.18,1.71,2.2   v3.18c0,2.36,1.92,4.28,4.28,4.28h5.44c2.36,0,4.28-1.92,4.28-4.28v-3.18c0-1.02,0.71-1.93,1.71-2.2c2.8-0.75,5.48-1.86,7.99-3.31   c0.91-0.52,2.05-0.38,2.77,0.34l2.24,2.24c1.67,1.67,4.38,1.67,6.05,0l3.85-3.85c1.67-1.67,1.67-4.38,0-6.05l-2.24-2.24   c-0.72-0.72-0.86-1.86-0.34-2.77c1.44-2.51,2.56-5.2,3.31-7.99c0.27-1.01,1.18-1.71,2.2-1.71h3.18c2.36,0,4.28-1.92,4.28-4.28   v-5.44C92,44.92,90.08,43,87.72,43z M90,52.72c0,1.26-1.02,2.28-2.28,2.28h-3.18c-1.93,0-3.63,1.31-4.13,3.2   c-0.71,2.63-1.75,5.16-3.11,7.51c-0.97,1.69-0.7,3.82,0.66,5.18l2.24,2.24c0.89,0.89,0.89,2.33,0,3.22l-3.85,3.85   c-0.89,0.89-2.33,0.89-3.22,0l-2.24-2.24c-1.36-1.36-3.5-1.63-5.18-0.66c-2.36,1.36-4.89,2.4-7.51,3.11c-1.88,0.5-3.2,2.2-3.2,4.13   v3.18c0,1.26-1.02,2.28-2.28,2.28h-5.44C46.02,90,45,88.98,45,87.72v-3.18c0-1.93-1.31-3.63-3.2-4.13   c-2.63-0.71-5.16-1.75-7.51-3.11c-0.68-0.39-1.43-0.58-2.17-0.58c-1.11,0-2.2,0.42-3.02,1.24l-2.24,2.24   c-0.89,0.89-2.33,0.89-3.22,0l-3.85-3.85c-0.89-0.89-0.89-2.33,0-3.22l2.24-2.24c1.36-1.36,1.63-3.49,0.66-5.18   c-1.36-2.36-2.4-4.89-3.11-7.51c-0.5-1.88-2.2-3.2-4.13-3.2h-3.18C11.02,55,10,53.98,10,52.72v-5.44c0-1.26,1.02-2.28,2.28-2.28   h3.18c1.93,0,3.63-1.31,4.13-3.2c0.71-2.63,1.75-5.16,3.11-7.51c0.97-1.69,0.7-3.82-0.66-5.18l-2.24-2.24   c-0.89-0.89-0.89-2.33,0-3.22l3.85-3.85c0.89-0.89,2.33-0.89,3.22,0l2.24,2.24c1.36,1.36,3.5,1.63,5.18,0.66   c2.36-1.36,4.89-2.4,7.51-3.11c1.88-0.5,3.2-2.2,3.2-4.13v-3.18c0-1.26,1.02-2.28,2.28-2.28h5.44c1.26,0,2.28,1.02,2.28,2.28v3.18   c0,1.93,1.31,3.63,3.2,4.13c2.63,0.71,5.16,1.75,7.51,3.11c1.69,0.97,3.82,0.7,5.18-0.66l2.24-2.24c0.89-0.89,2.33-0.89,3.22,0   l3.85,3.85c0.89,0.89,0.89,2.33,0,3.22l-2.24,2.24c-1.36,1.36-1.63,3.49-0.66,5.18c1.36,2.36,2.4,4.89,3.11,7.51   c0.5,1.88,2.2,3.2,4.13,3.2h3.18c1.26,0,2.28,1.02,2.28,2.28V52.72z"/><path d="M50,27c-12.68,0-23,10.32-23,23s10.32,23,23,23s23-10.32,23-23S62.68,27,50,27z M50,71c-11.58,0-21-9.42-21-21   s9.42-21,21-21s21,9.42,21,21S61.58,71,50,71z"/></g><text x="0" y="115" fill="#000000" font-size="5px" font-weight="bold" font-family="'Helvetica Neue', Helvetica, Arial-Unicode, Arial, Sans-serif">Created by Besticons</text><text x="0" y="120" fill="#000000" font-size="5px" font-weight="bold" font-family="'Helvetica Neue', Helvetica, Arial-Unicode, Arial, Sans-serif">from the Noun Project</text></svg>