<svg xmlns="http://www.w3.org/2000/svg" xmlns:xlink="http://www.w3.org/1999/xlink" version="1.1" x="0px" y="0px" viewBox="0 0 100 125" style="enable-background:new 0 0 100 100;" xml:space="preserve"><g><path d="M56,70l26.7-22.6c0.4-0.3,0.4-0.9,0-1.2L56,25c-0.5-0.4-2,0-2,1v10c0,0.4-0.6,1-1,1c-40,4-37.9,35-39.4,42.5   c-0.2,0.8,1,1.4,1.4,0.7C22,67,30,57,53,58c0.4,0,1,0.6,1,1v10C54,69.7,55,71,56,70z"/></g><text x="0" y="115" fill="#000000" font-size="5px" font-weight="bold" font-family="'Helvetica Neue', Helvetica, Arial-Unicode, Arial, Sans-serif">Created by Besticons</text><text x="0" y="120" fill="#000000" font-size="5px" font-weight="bold" font-family="'Helvetica Neue', Helvetica, Arial-Unicode, Arial, Sans-serif">from the Noun Project</text></svg>