<svg xmlns="http://www.w3.org/2000/svg" xmlns:xlink="http://www.w3.org/1999/xlink" version="1.1" x="0px" y="0px" viewBox="0 0 100 125" style="enable-background:new 0 0 100 100;" xml:space="preserve"><g><path d="M12.8,85.3c0.5,0.2,1.1,0.3,1.6,0.3c1.7,0,3.2-0.9,4.1-2.4c6.1-11.4,12.4-20.2,31.4-20.2c0,0,0.1,0,0.1,0V70   c0,2.1,1.4,4.2,3.4,5c1.8,0.8,3.8,0.4,5.3-1l26.6-22.5c1.1-0.9,1.8-2.3,1.7-3.8c0-1.5-0.7-2.8-1.8-3.7L58.5,22.8   c-1.5-1.2-3.7-1.3-5.5-0.4C51.1,23.3,50,25.1,50,27v7.3c-34.7,4.9-38.5,32.1-39.9,42.5C9.9,78,9.8,79,9.6,79.7v0   C9.2,82,10.5,84.4,12.8,85.3z M53.4,42c2.2-0.2,4.6-2.3,4.6-5v-4.3l19.2,15.2L58,64.1V60c0-2.5-2.3-4.9-4.8-5   c-16.5-0.7-26.1,4.1-32.7,11C23.9,55.7,31.9,44.2,53.4,42z"/></g><text x="0" y="115" fill="#000000" font-size="5px" font-weight="bold" font-family="'Helvetica Neue', Helvetica, Arial-Unicode, Arial, Sans-serif">Created by Besticons</text><text x="0" y="120" fill="#000000" font-size="5px" font-weight="bold" font-family="'Helvetica Neue', Helvetica, Arial-Unicode, Arial, Sans-serif">from the Noun Project</text></svg>