<svg xmlns="http://www.w3.org/2000/svg" xmlns:xlink="http://www.w3.org/1999/xlink" version="1.1" x="0px" y="0px" viewBox="0 0 100 125" style="enable-background:new 0 0 100 100;" xml:space="preserve"><g><path d="M90.2,40.2c-0.9-2.7-3.2-4.7-6-5.1l-19-2.8l-8.5-17.2C55.4,12.6,52.9,11,50,11c-2.9,0-5.4,1.6-6.7,4.2l-8.5,17.2l-19,2.8   c-2.8,0.4-5.1,2.4-6,5.1c-0.9,2.7-0.2,5.6,1.9,7.6l13.8,13.4l-3.2,18.9c-0.5,2.8,0.7,5.6,3,7.3c2.3,1.7,5.3,1.9,7.9,0.6l17-8.9   l17,8.9c1.1,0.6,2.3,0.9,3.5,0.9c1.5,0,3.1-0.5,4.4-1.4c2.3-1.7,3.4-4.5,3-7.3l-3.2-18.9l13.8-13.4C90.4,45.9,91.1,43,90.2,40.2z    M68.8,55.8c-1.8,1.7-2.6,4.2-2.1,6.6l3.1,18.1L53.5,72c-1.1-0.6-2.3-0.9-3.5-0.9s-2.4,0.3-3.5,0.9l-16.3,8.6l3.1-18.1   c0.4-2.4-0.4-4.9-2.1-6.6L18,42.9l18.2-2.6c2.4-0.4,4.5-1.9,5.6-4.1L50,19.7l8.1,16.5c1.1,2.2,3.2,3.7,5.6,4.1L82,42.9L68.8,55.8z"/></g><text x="0" y="115" fill="#000000" font-size="5px" font-weight="bold" font-family="'Helvetica Neue', Helvetica, Arial-Unicode, Arial, Sans-serif">Created by Besticons</text><text x="0" y="120" fill="#000000" font-size="5px" font-weight="bold" font-family="'Helvetica Neue', Helvetica, Arial-Unicode, Arial, Sans-serif">from the Noun Project</text></svg>