<svg xmlns="http://www.w3.org/2000/svg" xmlns:xlink="http://www.w3.org/1999/xlink" version="1.1" x="0px" y="0px" viewBox="0 0 100 125" style="enable-background:new 0 0 100 100;" xml:space="preserve"><g><path d="M88.6,44.6c2.2-2.2,1-6-2.1-6.4l-21-3c-1.2-0.2-2.3-0.9-2.8-2.1l-9.4-19c-1.4-2.8-5.4-2.8-6.7,0l-9.4,19   c-0.5,1.1-1.6,1.9-2.8,2.1l-21,3c-3.1,0.4-4.3,4.2-2.1,6.4l15.2,14.8c0.9,0.9,1.3,2.1,1.1,3.3L24,83.6c-0.5,3.1,2.7,5.4,5.4,4   l18.8-9.9c1.1-0.6,2.4-0.6,3.5,0l18.8,9.9c2.8,1.4,6-0.9,5.4-4l-3.6-20.9c-0.2-1.2,0.2-2.5,1.1-3.3L88.6,44.6z"/></g><text x="0" y="115" fill="#000000" font-size="5px" font-weight="bold" font-family="'Helvetica Neue', Helvetica, Arial-Unicode, Arial, Sans-serif">Created by Besticons</text><text x="0" y="120" fill="#000000" font-size="5px" font-weight="bold" font-family="'Helvetica Neue', Helvetica, Arial-Unicode, Arial, Sans-serif">from the Noun Project</text></svg>